<svg width="438" height="438" viewBox="0 0 438 438" fill="none" xmlns="http://www.w3.org/2000/svg">
<rect width="437.014" height="437.25" fill="white"/>
<path fill-rule="evenodd" clip-rule="evenodd" d="M44 218.625C44 163.074 89.074 118 144.625 118H150.313C151.351 118 152.291 118.614 152.709 119.564L216.111 261.375C217.028 263.461 219.986 263.461 220.903 261.375C242.038 213.304 263.167 167.642 284.305 119.564C284.723 118.614 285.663 118 286.701 118H292.389C347.94 118 393.014 163.074 393.014 218.625C393.014 273.298 349.353 317.823 295.014 319.216C293.569 319.253 292.389 318.078 292.389 316.632V299.204C292.389 297.758 293.567 296.591 295.012 296.543C336.833 295.158 370.351 260.781 370.351 218.625C370.351 178.679 340.257 145.718 301.519 141.193C300.4 141.062 299.333 141.692 298.88 142.723L289.323 164.46C288.485 166.366 290.108 168.473 292.184 168.326C293.375 168.242 294.577 168.199 295.789 168.199C323.638 168.199 346.214 190.775 346.214 218.625C346.214 246.474 323.638 269.05 295.789 269.05C279.787 269.05 265.527 261.597 256.289 249.973C254.993 248.343 252.344 248.571 251.506 250.477L220.903 317.686C219.986 319.771 217.028 319.771 216.111 317.686L185.468 250.386C184.629 248.477 181.974 248.252 180.68 249.887C171.444 261.561 157.153 269.05 141.112 269.05C113.263 269.05 90.6863 246.474 90.6863 218.625C90.6863 190.775 113.263 168.199 141.112 168.199C142.361 168.199 143.599 168.244 144.826 168.334C146.905 168.485 148.533 166.376 147.694 164.468L138.134 142.723C137.68 141.692 136.614 141.062 135.495 141.193C96.7573 145.718 66.6632 178.679 66.6632 218.625C66.6632 260.781 100.181 295.158 142.002 296.543C143.447 296.591 144.625 297.758 144.625 299.204V316.632C144.625 318.078 143.445 319.253 142 319.216C87.661 317.823 44 273.298 44 218.625ZM269.732 209.022C268.629 212.014 268.026 215.249 268.026 218.625C268.026 233.958 280.456 246.387 295.789 246.387C311.121 246.387 323.551 233.958 323.551 218.625C323.551 203.292 311.121 190.862 295.789 190.862C285.025 190.862 275.692 196.987 271.086 205.942L269.732 209.022ZM141.112 190.862C125.779 190.862 113.35 203.292 113.35 218.625C113.35 233.958 125.779 246.387 141.112 246.387C156.445 246.387 168.874 233.958 168.874 218.625C168.874 203.292 156.445 190.862 141.112 190.862Z" fill="#F9465B"/>
</svg>
