<svg width="136" height="33" viewBox="0 0 136 33" fill="none" xmlns="http://www.w3.org/2000/svg">
<g opacity="0.15">
<path fill-rule="evenodd" clip-rule="evenodd" d="M16 32.4751C24.8366 32.4751 32 25.3117 32 16.4751C32 7.63854 24.8366 0.475097 16 0.475097C7.16344 0.475097 0 7.63854 0 16.4751C0 25.3117 7.16344 32.4751 16 32.4751ZM10.5898 9.10668C6.52203 9.10668 3.22142 12.4073 3.22142 16.4751C3.22142 20.4786 6.41857 23.739 10.3976 23.841C10.5034 23.8437 10.5898 23.7577 10.5898 23.6518V22.3756C10.5898 22.2698 10.5036 22.1843 10.3978 22.1808C7.33533 22.0794 4.88097 19.5621 4.88097 16.4751C4.88097 13.55 7.08466 11.1364 9.92128 10.805C10.0032 10.7954 10.0813 10.8415 10.1145 10.917L10.8146 12.5093C10.876 12.6491 10.7568 12.8035 10.6045 12.7924C10.5147 12.7859 10.4241 12.7826 10.3326 12.7826C8.29329 12.7826 6.6401 14.4358 6.6401 16.4751C6.6401 18.5144 8.29329 20.1676 10.3326 20.1676C11.5072 20.1676 12.5537 19.6191 13.23 18.7643C13.3248 18.6446 13.5192 18.6611 13.5806 18.8009L15.8245 23.729C15.8916 23.8817 16.1083 23.8817 16.1754 23.729L18.4164 18.8075C18.4777 18.6679 18.6717 18.6513 18.7666 18.7706C19.4431 19.6218 20.4873 20.1676 21.659 20.1676C23.6983 20.1676 25.3515 18.5144 25.3515 16.4751C25.3515 14.4358 23.6983 12.7826 21.659 12.7826C21.5703 12.7826 21.4823 12.7857 21.3951 12.7919C21.243 12.8026 21.1242 12.6484 21.1856 12.5088L21.8854 10.917C21.9186 10.8415 21.9967 10.7954 22.0786 10.805C24.9153 11.1364 27.119 13.55 27.119 16.4751C27.119 19.5621 24.6646 22.0794 21.6021 22.1808C21.4963 22.1843 21.4101 22.2698 21.4101 22.3756V23.6518C21.4101 23.7577 21.4965 23.8437 21.6023 23.841C25.5814 23.739 28.7785 20.4786 28.7785 16.4751C28.7785 12.4073 25.4779 9.10668 21.4101 9.10668H20.9936C20.9176 9.10668 20.8487 9.15161 20.8181 9.22121C20.0442 10.9815 19.2704 12.6976 18.4967 14.4137C17.7229 16.1296 16.9492 17.8455 16.1754 19.6056C16.1083 19.7583 15.8916 19.7583 15.8245 19.6056L11.1818 9.22121C11.1512 9.15161 11.0824 9.10668 11.0063 9.10668H10.5898ZM19.6261 16.4751C19.6261 16.2279 19.6702 15.991 19.751 15.7719L19.8501 15.5464C20.1875 14.8907 20.8709 14.4421 21.659 14.4421C22.7818 14.4421 23.692 15.3523 23.692 16.4751C23.692 17.5978 22.7818 18.508 21.659 18.508C20.5363 18.508 19.6261 17.5978 19.6261 16.4751ZM8.29965 16.4751C8.29965 15.3523 9.20983 14.4421 10.3326 14.4421C11.4554 14.4421 12.3655 15.3523 12.3655 16.4751C12.3655 17.5978 11.4554 18.508 10.3326 18.508C9.20983 18.508 8.29965 17.5978 8.29965 16.4751Z" fill="black"/>
<path fill-rule="evenodd" clip-rule="evenodd" d="M110.724 11.283C111.321 11.283 111.805 10.7989 111.805 10.2018C111.805 9.60462 111.321 9.12054 110.724 9.12054C110.127 9.12054 109.642 9.60462 109.642 10.2018C109.642 10.7989 110.127 11.283 110.724 11.283ZM77.5328 11.9869C77.5372 11.6305 77.8937 11.2763 78.2501 11.2763H79.9239H80.5216C81.478 11.2763 82.3149 12.1132 82.3149 13.1533C82.3508 13.5598 82.2073 13.9543 81.9084 14.2771C81.5737 14.6477 81.0596 14.8629 80.5216 14.8629H78.2501C77.8937 14.8629 77.5372 14.5087 77.5328 14.1522V11.9869ZM80.5216 9.12435H79.9239H78.2501H76.4569C75.8591 9.12435 75.3809 9.48301 75.3809 10.2003V11.9781L75.3808 11.9936V14.1456L75.3809 14.1611V17.8516V20.9599V22.5086C75.3643 22.5843 75.3556 22.663 75.3556 22.7439C75.3556 23.2719 75.7269 23.7071 76.2248 23.8046C76.2994 23.8208 76.3771 23.8293 76.4569 23.8293C76.4896 23.8293 76.522 23.8279 76.5539 23.8251H78.1C78.1497 23.8278 78.1998 23.8292 78.2501 23.8292H80.9999C83.5224 23.8292 85.4233 21.9283 85.4233 19.4057C85.4233 17.8877 84.6544 16.5456 83.4856 15.7486L83.4865 15.7476C84.1919 14.9824 84.5386 14.0021 84.4669 13.0696C84.4669 10.9296 82.6616 9.12435 80.5216 9.12435ZM79.9208 21.6773H80.9999C82.3149 21.6773 83.2714 20.7208 83.2714 19.4057C83.2714 18.1504 82.2552 17.1342 80.9999 17.1342H78.2501C77.8915 17.1342 77.5328 17.4929 77.5328 17.8516V20.9599C77.5328 21.276 77.8113 21.592 78.1229 21.6627H79.9208V21.6773ZM90.3723 18.1977V22.7438C90.3723 23.3445 89.8917 23.825 89.291 23.825C88.6904 23.825 88.2098 23.3445 88.2098 22.7438V14.5746C88.2098 13.9739 88.6904 13.4934 89.291 13.4934C89.7263 13.4934 90.0984 13.7456 90.2704 14.1131C91.0462 13.571 91.9892 13.2531 93.0035 13.2531H93.9766C94.5773 13.2531 95.0579 13.7337 95.0579 14.3344C95.0579 14.935 94.5773 15.4156 93.9766 15.4156H93.0035C91.5619 15.4156 90.3846 16.5929 90.3846 18.0345C90.3846 18.0901 90.3804 18.1446 90.3723 18.1977ZM123.83 23.8131C123.23 23.8131 122.749 23.3325 122.749 22.7319V18.1427C122.749 16.641 121.524 15.4156 120.022 15.4156C118.52 15.4156 117.295 16.641 117.295 18.1427V21.4825C117.295 21.5373 117.291 21.5911 117.283 21.6436V22.7438C117.283 23.3445 116.803 23.825 116.202 23.825C115.601 23.825 115.121 23.3445 115.121 22.7438V14.5746C115.121 13.9739 115.601 13.4934 116.202 13.4934C116.653 13.4934 117.037 13.7649 117.2 14.1549C117.998 13.5874 118.973 13.2531 120.022 13.2531C122.713 13.2531 124.912 15.4516 124.912 18.1427V22.7319C124.912 23.3325 124.419 23.8131 123.83 23.8131ZM106.531 18.8412V22.7438C106.531 23.3445 106.05 23.825 105.45 23.825C104.86 23.825 104.386 23.3622 104.369 22.7772C103.48 23.4351 102.382 23.825 101.197 23.825C98.2536 23.825 95.8509 21.4223 95.8509 18.4789C95.8509 15.5356 98.2536 13.1329 101.197 13.1329C102.408 13.1329 103.527 13.5397 104.426 14.2235C104.57 13.7971 104.972 13.4934 105.45 13.4934C106.05 13.4934 106.531 13.9739 106.531 14.5746V18.1166C106.539 18.2364 106.543 18.3572 106.543 18.4789C106.543 18.6007 106.539 18.7215 106.531 18.8412ZM104.368 18.1993C104.226 16.5755 102.857 15.2953 101.197 15.2953C99.4429 15.2953 98.0133 16.725 98.0133 18.4789C98.0133 20.2329 99.4429 21.6625 101.197 21.6625C102.857 21.6625 104.226 20.3824 104.368 18.7586V18.1993ZM111.805 22.7438V14.5746C111.805 13.9739 111.312 13.4934 110.724 13.4934C110.123 13.4934 109.642 13.9739 109.642 14.5746V22.7438C109.642 23.3445 110.123 23.825 110.724 23.825C111.324 23.825 111.805 23.3445 111.805 22.7438ZM132.564 17.5901C132.651 17.6077 132.732 17.6352 132.809 17.6711L133.693 17.8545C135.039 18.1308 136 19.3322 136 20.7017C136 21.9751 135.183 23.0924 133.97 23.4768C133.249 23.7051 132.492 23.8132 131.735 23.8132C130.966 23.8132 130.197 23.6931 129.453 23.4528L128.696 23.2125C128.131 23.0323 127.819 22.4196 127.999 21.855C128.179 21.2904 128.792 20.978 129.356 21.1582L130.113 21.3985C131.171 21.7349 132.276 21.7469 133.333 21.4105C133.645 21.3144 133.85 21.0261 133.85 20.7017C133.85 20.3533 133.597 20.041 133.261 19.9689L130.942 19.4883C130.866 19.4728 130.794 19.4496 130.725 19.4198L129.789 19.2239C128.444 18.9476 127.47 17.7463 127.47 16.3767C127.47 15.1033 128.287 13.986 129.501 13.6016C130.99 13.1331 132.552 13.1331 134.042 13.6136L134.799 13.8539C135.363 14.0341 135.676 14.6468 135.496 15.2114C135.315 15.776 134.703 16.0884 134.138 15.9082L133.357 15.6679C132.3 15.3315 131.195 15.3195 130.137 15.6559C129.825 15.752 129.621 16.0403 129.621 16.3647C129.621 16.7131 129.873 17.0255 130.21 17.0975L132.564 17.5901ZM67.8542 22.4311C68.3604 22.0695 68.4087 21.3343 67.9627 20.8884C67.6011 20.5268 67.0467 20.4906 66.6489 20.7919C65.7811 21.4187 64.7084 21.7803 63.5513 21.7803C62.0808 21.7803 60.755 21.1897 59.8028 20.2254C58.8386 19.2733 58.248 17.9474 58.248 16.477C58.248 15.0065 58.8386 13.6807 59.8028 12.7285H59.8149C60.7671 11.7642 62.0808 11.1737 63.5513 11.1737C64.7084 11.1737 65.7811 11.5352 66.6489 12.162C67.0467 12.4633 67.6132 12.4151 67.9627 12.0656C68.3966 11.6317 68.3604 10.8844 67.8542 10.5228C66.6489 9.64292 65.1544 9.12464 63.5513 9.12464C61.5264 9.12464 59.7064 9.94425 58.3685 11.2821H58.3565C57.0186 12.608 56.199 14.4521 56.199 16.477C56.199 18.5019 57.0186 20.346 58.3565 21.6718C59.6944 23.0097 61.5264 23.8293 63.5513 23.8293C65.1544 23.8293 66.6489 23.311 67.8542 22.4311ZM53.6199 15.8984H48.9313C48.3286 15.8984 47.8465 16.3805 47.8465 16.9832C47.8465 17.5858 48.3286 18.068 48.9313 18.068H52.0471C52.184 18.0784 52.3048 18.1952 52.3048 18.3449C52.3048 18.3771 52.2953 18.4093 52.2847 18.4414C52.0184 19.1204 51.6116 19.7249 51.1008 20.2254C50.1486 21.1897 48.8228 21.7803 47.3523 21.7803C45.8819 21.7803 44.556 21.1897 43.6038 20.2254V20.2134C42.6396 19.2612 42.049 17.9474 42.049 16.477C42.049 15.0065 42.6396 13.6807 43.6038 12.7285C44.556 11.7642 45.8819 11.1737 47.3523 11.1737C48.5094 11.1737 49.5701 11.5352 50.4379 12.162C50.8477 12.4513 51.4021 12.4151 51.7517 12.0656C52.1856 11.6317 52.1494 10.8844 51.6432 10.5228C50.4379 9.64292 48.9554 9.12464 47.3523 9.12464C45.3274 9.12464 43.4833 9.94425 42.1575 11.2821C40.8196 12.608 40 14.4521 40 16.477C40 18.5019 40.8196 20.3339 42.1575 21.6597V21.6718C43.4833 23.0097 45.3274 23.8293 47.3523 23.8293C49.3772 23.8293 51.2213 23.0097 52.5472 21.6718C53.5234 20.7076 54.2225 19.454 54.5359 18.068C54.6082 17.7064 54.6564 17.3448 54.6805 16.9711C54.6926 16.3805 54.2105 15.9105 53.6199 15.8984Z" fill="black"/>
</g>
</svg>
