<svg width="96" height="57" viewBox="0 0 96 57" fill="none" xmlns="http://www.w3.org/2000/svg">
<path fill-rule="evenodd" clip-rule="evenodd" d="M48 32C56.8366 32 64 24.8366 64 16C64 7.16344 56.8366 -2.38419e-07 48 -2.38419e-07C39.1634 -2.38419e-07 32 7.16344 32 16C32 24.8366 39.1634 32 48 32ZM42.5898 8.63158C38.522 8.63158 35.2214 11.9322 35.2214 16C35.2214 20.0035 38.4186 23.2639 42.3976 23.3659C42.5034 23.3686 42.5898 23.2826 42.5898 23.1767V21.9005C42.5898 21.7947 42.5036 21.7092 42.3978 21.7057C39.3353 21.6043 36.881 19.087 36.881 16C36.881 13.0749 39.0847 10.6613 41.9213 10.3299C42.0032 10.3204 42.0813 10.3664 42.1145 10.4419L42.8146 12.0342C42.876 12.174 42.7568 12.3284 42.6045 12.3173C42.5147 12.3108 42.4241 12.3075 42.3326 12.3075C40.2933 12.3075 38.6401 13.9607 38.6401 16C38.6401 18.0393 40.2933 19.6925 42.3326 19.6925C43.5072 19.6925 44.5537 19.144 45.23 18.2892C45.3248 18.1695 45.5192 18.186 45.5806 18.3258L47.8245 23.2539C47.8916 23.4066 48.1083 23.4066 48.1754 23.2539L50.4164 18.3324C50.4777 18.1928 50.6717 18.1762 50.7666 18.2955C51.4431 19.1467 52.4873 19.6925 53.659 19.6925C55.6983 19.6925 57.3515 18.0393 57.3515 16C57.3515 13.9607 55.6983 12.3075 53.659 12.3075C53.5703 12.3075 53.4823 12.3106 53.3951 12.3168C53.243 12.3275 53.1242 12.1733 53.1856 12.0337L53.8854 10.4419C53.9186 10.3664 53.9967 10.3204 54.0786 10.3299C56.9153 10.6613 59.119 13.0749 59.119 16C59.119 19.087 56.6646 21.6043 53.6021 21.7057C53.4963 21.7092 53.4101 21.7947 53.4101 21.9005V23.1767C53.4101 23.2826 53.4965 23.3686 53.6023 23.3659C57.5814 23.2639 60.7785 20.0035 60.7785 16C60.7785 11.9322 57.4779 8.63158 53.4101 8.63158H52.9936C52.9176 8.63158 52.8487 8.67651 52.8181 8.74611C52.0442 10.5064 51.2704 12.2225 50.4967 13.9386C49.7229 15.6545 48.9492 17.3704 48.1754 19.1305C48.1083 19.2832 47.8916 19.2832 47.8245 19.1305L43.1818 8.74611C43.1512 8.67651 43.0824 8.63158 43.0063 8.63158H42.5898ZM51.6261 16C51.6261 15.7528 51.6702 15.5159 51.751 15.2968L51.8501 15.0713C52.1875 14.4156 52.8709 13.967 53.659 13.967C54.7818 13.967 55.692 14.8772 55.692 16C55.692 17.1228 54.7818 18.0329 53.659 18.0329C52.5363 18.0329 51.6261 17.1228 51.6261 16ZM40.2996 16C40.2996 14.8772 41.2098 13.967 42.3326 13.967C43.4554 13.967 44.3655 14.8772 44.3655 16C44.3655 17.1228 43.4554 18.0329 42.3326 18.0329C41.2098 18.0329 40.2996 17.1228 40.2996 16Z" fill="white" fill-opacity="0.15"/>
<path fill-rule="evenodd" clip-rule="evenodd" d="M70.7237 43.7625C71.3208 43.7625 71.8049 43.2784 71.8049 42.6813C71.8049 42.0841 71.3208 41.6 70.7237 41.6C70.1265 41.6 69.6425 42.0841 69.6425 42.6813C69.6425 43.2784 70.1265 43.7625 70.7237 43.7625ZM37.5328 44.4664C37.5372 44.11 37.8937 43.7558 38.2501 43.7558H39.9239H40.5216C41.478 43.7558 42.3149 44.5927 42.3149 45.6328C42.3508 46.0393 42.2073 46.4338 41.9084 46.7566C41.5737 47.1272 41.0596 47.3424 40.5216 47.3424H38.2501C37.8937 47.3424 37.5372 46.9881 37.5328 46.6317V44.4664ZM40.5216 41.6038H39.9239H38.2501H36.4569C35.8591 41.6038 35.3809 41.9625 35.3809 42.6798V44.4576L35.3808 44.4731V46.6251L35.3809 46.6405V50.3311V53.4394V54.9881C35.3643 55.0638 35.3556 55.1425 35.3556 55.2234C35.3556 55.7514 35.7269 56.1866 36.2248 56.2841C36.2994 56.3003 36.3771 56.3088 36.4569 56.3088C36.4896 56.3088 36.522 56.3074 36.5539 56.3046H38.1C38.1497 56.3073 38.1998 56.3087 38.2501 56.3087H40.9999C43.5224 56.3087 45.4233 54.4078 45.4233 51.8852C45.4233 50.3671 44.6544 49.0251 43.4856 48.2281L43.4865 48.2271C44.1919 47.4619 44.5386 46.4816 44.4669 45.5491C44.4669 43.4091 42.6616 41.6038 40.5216 41.6038ZM39.9208 54.1567H40.9999C42.3149 54.1567 43.2714 53.2003 43.2714 51.8852C43.2714 50.6299 42.2552 49.6137 40.9999 49.6137H38.2501C37.8915 49.6137 37.5328 49.9724 37.5328 50.3311V53.4394C37.5328 53.7555 37.8113 54.0715 38.1229 54.1421H39.9208V54.1567ZM50.3723 50.6772V55.2233C50.3723 55.824 49.8917 56.3045 49.291 56.3045C48.6904 56.3045 48.2098 55.824 48.2098 55.2233V47.0541C48.2098 46.4534 48.6904 45.9728 49.291 45.9728C49.7263 45.9728 50.0984 46.2251 50.2704 46.5926C51.0462 46.0505 51.9892 45.7326 53.0035 45.7326H53.9766C54.5773 45.7326 55.0579 46.2132 55.0579 46.8139C55.0579 47.4145 54.5773 47.8951 53.9766 47.8951H53.0035C51.5619 47.8951 50.3846 49.0724 50.3846 50.514C50.3846 50.5696 50.3804 50.6241 50.3723 50.6772ZM83.8303 56.2926C83.2296 56.2926 82.7491 55.812 82.7491 55.2114V50.6222C82.7491 49.1205 81.5237 47.8951 80.022 47.8951C78.5203 47.8951 77.2949 49.1205 77.2949 50.6222V53.9619C77.2949 54.0168 77.2909 54.0706 77.2832 54.1231V55.2233C77.2832 55.824 76.8026 56.3045 76.2019 56.3045C75.6013 56.3045 75.1207 55.824 75.1207 55.2233V47.0541C75.1207 46.4534 75.6013 45.9728 76.2019 45.9728C76.6535 45.9728 77.0371 46.2444 77.1998 46.6343C77.9982 46.0669 78.9726 45.7326 80.022 45.7326C82.713 45.7326 84.9115 47.9311 84.9115 50.6222V55.2114C84.9115 55.812 84.419 56.2926 83.8303 56.2926ZM66.5308 51.3207V55.2233C66.5308 55.824 66.0502 56.3045 65.4495 56.3045C64.86 56.3045 64.3862 55.8417 64.3688 55.2566C63.4804 55.9146 62.3825 56.3045 61.1969 56.3045C58.2536 56.3045 55.8509 53.9018 55.8509 50.9584C55.8509 48.0151 58.2536 45.6124 61.1969 45.6124C62.408 45.6124 63.5275 46.0191 64.4258 46.703C64.5704 46.2766 64.972 45.9728 65.4495 45.9728C66.0502 45.9728 66.5308 46.4534 66.5308 47.0541V50.5961C66.5389 50.7159 66.543 50.8367 66.543 50.9584C66.543 51.0802 66.5389 51.201 66.5308 51.3207ZM64.3683 50.6788C64.226 49.055 62.8567 47.7748 61.1969 47.7748C59.4429 47.7748 58.0133 49.2044 58.0133 50.9584C58.0133 52.7124 59.4429 54.142 61.1969 54.142C62.8567 54.142 64.226 52.8618 64.3683 51.238V50.6788ZM71.8049 55.2233V47.0541C71.8049 46.4534 71.3123 45.9728 70.7237 45.9728C70.123 45.9728 69.6425 46.4534 69.6425 47.0541V55.2233C69.6425 55.824 70.123 56.3045 70.7237 56.3045C71.3244 56.3045 71.8049 55.824 71.8049 55.2233ZM92.5642 50.0696C92.6506 50.0872 92.7324 50.1147 92.8087 50.1506L93.6934 50.334C95.0389 50.6103 96 51.8116 96 53.1812C96 54.4546 95.1831 55.5719 93.9697 55.9563C93.2489 56.1846 92.492 56.2927 91.7352 56.2927C90.9663 56.2927 90.1974 56.1726 89.4526 55.9323L88.6957 55.692C88.1311 55.5118 87.8187 54.8991 87.999 54.3345C88.1792 53.7699 88.7918 53.4575 89.3565 53.6377L90.1133 53.878C91.1705 54.2144 92.2758 54.2264 93.333 53.89C93.6453 53.7939 93.8496 53.5056 93.8496 53.1812C93.8496 52.8328 93.5973 52.5204 93.2609 52.4484L90.9423 51.9678C90.8662 51.9523 90.7936 51.9291 90.7253 51.8993L89.7891 51.7034C88.4435 51.4271 87.4704 50.2258 87.4704 48.8562C87.4704 47.5828 88.2874 46.4655 89.5007 46.0811C90.9904 45.6125 92.5522 45.6125 94.0419 46.0931L94.7987 46.3334C95.3634 46.5136 95.6757 47.1263 95.4955 47.6909C95.3153 48.2555 94.7026 48.5679 94.138 48.3877L93.3571 48.1474C92.2999 47.811 91.1946 47.799 90.1375 48.1354C89.8251 48.2315 89.6209 48.5198 89.6209 48.8442C89.6209 49.1926 89.8731 49.505 90.2095 49.577L92.5642 50.0696ZM27.8542 54.9106C28.3604 54.549 28.4087 53.8138 27.9627 53.3678C27.6011 53.0063 27.0467 52.9701 26.6489 53.2714C25.7811 53.8982 24.7084 54.2598 23.5513 54.2598C22.0808 54.2598 20.755 53.6692 19.8028 52.7049C18.8386 51.7527 18.248 50.4269 18.248 48.9565C18.248 47.486 18.8386 46.1602 19.8028 45.208H19.8149C20.7671 44.2437 22.0808 43.6531 23.5513 43.6531C24.7084 43.6531 25.7811 44.0147 26.6489 44.6415C27.0467 44.9428 27.6132 44.8946 27.9627 44.5451C28.3966 44.1112 28.3604 43.3639 27.8542 43.0023C26.6489 42.1224 25.1544 41.6041 23.5513 41.6041C21.5264 41.6041 19.7064 42.4237 18.3685 43.7616H18.3565C17.0186 45.0874 16.199 46.9316 16.199 48.9565C16.199 50.9814 17.0186 52.8255 18.3565 54.1513C19.6944 55.4892 21.5264 56.3088 23.5513 56.3088C25.1544 56.3088 26.6489 55.7905 27.8542 54.9106ZM13.6199 48.3779H8.93126C8.32861 48.3779 7.84649 48.86 7.84649 49.4627C7.84649 50.0653 8.32861 50.5474 8.93126 50.5474H12.0471C12.184 50.5579 12.3048 50.6747 12.3048 50.8244C12.3048 50.8566 12.2953 50.8888 12.2847 50.9209C12.0184 51.5999 11.6116 52.2044 11.1008 52.7049C10.1486 53.6692 8.82278 54.2598 7.35232 54.2598C5.88185 54.2598 4.55602 53.6692 3.60384 52.7049V52.6929C2.6396 51.7407 2.049 50.4269 2.049 48.9565C2.049 47.486 2.6396 46.1602 3.60384 45.208C4.55602 44.2437 5.88185 43.6531 7.35232 43.6531C8.5094 43.6531 9.57007 44.0147 10.4379 44.6415C10.8477 44.9308 11.4021 44.8946 11.7517 44.5451C12.1856 44.1112 12.1494 43.3639 11.6432 43.0023C10.4379 42.1224 8.95536 41.6041 7.35232 41.6041C5.32742 41.6041 3.48331 42.4237 2.15748 43.7616C0.819599 45.0874 0 46.9316 0 48.9565C0 50.9814 0.819599 52.8134 2.15748 54.1392V54.1513C3.48331 55.4892 5.32742 56.3088 7.35232 56.3088C9.37722 56.3088 11.2213 55.4892 12.5472 54.1513C13.5234 53.1871 14.2225 51.9335 14.5359 50.5474C14.6082 50.1859 14.6564 49.8243 14.6805 49.4506C14.6926 48.86 14.2105 48.39 13.6199 48.3779Z" fill="white" fill-opacity="0.15"/>
</svg>
