<svg width="136" height="32" viewBox="0 0 136 32" fill="none" xmlns="http://www.w3.org/2000/svg">
<g opacity="0.3">
<path fill-rule="evenodd" clip-rule="evenodd" d="M16 32C24.8366 32 32 24.8366 32 16C32 7.16344 24.8366 0 16 0C7.16344 0 0 7.16344 0 16C0 24.8366 7.16344 32 16 32ZM10.5898 8.63158C6.52203 8.63158 3.22142 11.9322 3.22142 16C3.22142 20.0035 6.41857 23.2639 10.3976 23.3659C10.5034 23.3686 10.5898 23.2826 10.5898 23.1767V21.9005C10.5898 21.7947 10.5036 21.7092 10.3978 21.7057C7.33533 21.6043 4.88097 19.087 4.88097 16C4.88097 13.0749 7.08466 10.6613 9.92128 10.3299C10.0032 10.3204 10.0813 10.3664 10.1145 10.4419L10.8146 12.0342C10.876 12.174 10.7568 12.3284 10.6045 12.3173C10.5147 12.3108 10.4241 12.3075 10.3326 12.3075C8.29329 12.3075 6.6401 13.9607 6.6401 16C6.6401 18.0393 8.29329 19.6925 10.3326 19.6925C11.5072 19.6925 12.5537 19.144 13.23 18.2892C13.3248 18.1695 13.5192 18.186 13.5806 18.3258L15.8245 23.2539C15.8916 23.4066 16.1083 23.4066 16.1754 23.2539L18.4164 18.3324C18.4777 18.1928 18.6717 18.1762 18.7666 18.2955C19.4431 19.1467 20.4873 19.6925 21.659 19.6925C23.6983 19.6925 25.3515 18.0393 25.3515 16C25.3515 13.9607 23.6983 12.3075 21.659 12.3075C21.5703 12.3075 21.4823 12.3106 21.3951 12.3168C21.243 12.3275 21.1242 12.1733 21.1856 12.0337L21.8854 10.4419C21.9186 10.3664 21.9967 10.3204 22.0786 10.3299C24.9153 10.6613 27.119 13.0749 27.119 16C27.119 19.087 24.6646 21.6043 21.6021 21.7057C21.4963 21.7092 21.4101 21.7947 21.4101 21.9005V23.1767C21.4101 23.2826 21.4965 23.3686 21.6023 23.3659C25.5814 23.2639 28.7785 20.0035 28.7785 16C28.7785 11.9322 25.4779 8.63158 21.4101 8.63158H20.9936C20.9176 8.63158 20.8487 8.67651 20.8181 8.74611C20.0442 10.5064 19.2704 12.2225 18.4967 13.9386C17.7229 15.6545 16.9492 17.3704 16.1754 19.1305C16.1083 19.2832 15.8916 19.2832 15.8245 19.1305L11.1818 8.74611C11.1512 8.67651 11.0824 8.63158 11.0063 8.63158H10.5898ZM19.6261 16C19.6261 15.7528 19.6702 15.5159 19.751 15.2968L19.8501 15.0713C20.1875 14.4156 20.8709 13.967 21.659 13.967C22.7818 13.967 23.692 14.8772 23.692 16C23.692 17.1228 22.7818 18.0329 21.659 18.0329C20.5363 18.0329 19.6261 17.1228 19.6261 16ZM8.29965 16C8.29965 14.8772 9.20983 13.967 10.3326 13.967C11.4554 13.967 12.3655 14.8772 12.3655 16C12.3655 17.1228 11.4554 18.0329 10.3326 18.0329C9.20983 18.0329 8.29965 17.1228 8.29965 16Z" fill="white"/>
<path fill-rule="evenodd" clip-rule="evenodd" d="M110.724 10.8081C111.321 10.8081 111.805 10.3241 111.805 9.72691C111.805 9.12976 111.321 8.64568 110.724 8.64568C110.127 8.64568 109.642 9.12976 109.642 9.72691C109.642 10.3241 110.127 10.8081 110.724 10.8081ZM77.5328 11.5121C77.5372 11.1557 77.8937 10.8014 78.2501 10.8014H79.9239H80.5216C81.478 10.8014 82.3149 11.6383 82.3149 12.6784C82.3508 13.0849 82.2073 13.4794 81.9084 13.8022C81.5737 14.1728 81.0596 14.388 80.5216 14.388H78.2501C77.8937 14.388 77.5372 14.0338 77.5328 13.6774V11.5121ZM80.5216 8.6495H79.9239H78.2501H76.4569C75.8591 8.6495 75.3809 9.00816 75.3809 9.72547V11.5033L75.3808 11.5188V13.6707L75.3809 13.6862V17.3767V20.4851V22.0337C75.3643 22.1094 75.3556 22.1881 75.3556 22.269C75.3556 22.797 75.7269 23.2322 76.2248 23.3298C76.2994 23.346 76.3771 23.3545 76.4569 23.3545C76.4896 23.3545 76.522 23.3531 76.5539 23.3502H78.1C78.1497 23.353 78.1998 23.3543 78.2501 23.3543H80.9999C83.5224 23.3543 85.4233 21.4535 85.4233 18.9309C85.4233 17.4128 84.6544 16.0707 83.4856 15.2737L83.4865 15.2727C84.1919 14.5076 84.5386 13.5273 84.4669 12.5947C84.4669 10.4547 82.6616 8.6495 80.5216 8.6495ZM79.9208 21.2024H80.9999C82.3149 21.2024 83.2714 20.246 83.2714 18.9309C83.2714 17.6756 82.2552 16.6594 80.9999 16.6594H78.2501C77.8915 16.6594 77.5328 17.0181 77.5328 17.3767V20.4851C77.5328 20.8011 77.8113 21.1171 78.1229 21.1878H79.9208V21.2024ZM90.3723 17.7229V22.269C90.3723 22.8696 89.8917 23.3502 89.291 23.3502C88.6904 23.3502 88.2098 22.8696 88.2098 22.269V14.0997C88.2098 13.499 88.6904 13.0185 89.291 13.0185C89.7263 13.0185 90.0984 13.2708 90.2704 13.6383C91.0462 13.0962 91.9892 12.7783 93.0035 12.7783H93.9766C94.5773 12.7783 95.0579 13.2588 95.0579 13.8595C95.0579 14.4602 94.5773 14.9407 93.9766 14.9407H93.0035C91.5619 14.9407 90.3846 16.1181 90.3846 17.5597C90.3846 17.6152 90.3804 17.6697 90.3723 17.7229ZM123.83 23.3382C123.23 23.3382 122.749 22.8577 122.749 22.257V17.6678C122.749 16.1661 121.524 14.9407 120.022 14.9407C118.52 14.9407 117.295 16.1661 117.295 17.6678V21.0076C117.295 21.0624 117.291 21.1162 117.283 21.1688V22.269C117.283 22.8696 116.803 23.3502 116.202 23.3502C115.601 23.3502 115.121 22.8696 115.121 22.269V14.0997C115.121 13.499 115.601 13.0185 116.202 13.0185C116.653 13.0185 117.037 13.29 117.2 13.68C117.998 13.1126 118.973 12.7783 120.022 12.7783C122.713 12.7783 124.912 14.9768 124.912 17.6678V22.257C124.912 22.8577 124.419 23.3382 123.83 23.3382ZM106.531 18.3664V22.269C106.531 22.8696 106.05 23.3502 105.45 23.3502C104.86 23.3502 104.386 22.8873 104.369 22.3023C103.48 22.9603 102.382 23.3501 101.197 23.3501C98.2536 23.3501 95.8509 20.9474 95.8509 18.0041C95.8509 15.0608 98.2536 12.658 101.197 12.658C102.408 12.658 103.527 13.0648 104.426 13.7486C104.57 13.3222 104.972 13.0185 105.45 13.0185C106.05 13.0185 106.531 13.499 106.531 14.0997V17.6418C106.539 17.7615 106.543 17.8823 106.543 18.0041C106.543 18.1258 106.539 18.2466 106.531 18.3664ZM104.368 17.7245C104.226 16.1007 102.857 14.8205 101.197 14.8205C99.4429 14.8205 98.0133 16.2501 98.0133 18.0041C98.0133 19.7581 99.4429 21.1877 101.197 21.1877C102.857 21.1877 104.226 19.9075 104.368 18.2837V17.7245ZM111.805 22.269V14.0997C111.805 13.499 111.312 13.0185 110.724 13.0185C110.123 13.0185 109.642 13.499 109.642 14.0997V22.269C109.642 22.8696 110.123 23.3502 110.724 23.3502C111.324 23.3502 111.805 22.8696 111.805 22.269ZM132.564 17.1152C132.651 17.1329 132.732 17.1604 132.809 17.1963L133.693 17.3796C135.039 17.6559 136 18.8573 136 20.2268C136 21.5003 135.183 22.6175 133.97 23.002C133.249 23.2302 132.492 23.3384 131.735 23.3384C130.966 23.3384 130.197 23.2182 129.453 22.978L128.696 22.7377C128.131 22.5575 127.819 21.9448 127.999 21.3801C128.179 20.8155 128.792 20.5032 129.356 20.6834L130.113 20.9236C131.171 21.26 132.276 21.272 133.333 20.9356C133.645 20.8395 133.85 20.5512 133.85 20.2268C133.85 19.8785 133.597 19.5661 133.261 19.494L130.942 19.0135C130.866 18.9979 130.794 18.9748 130.725 18.9449L129.789 18.7491C128.444 18.4728 127.47 17.2714 127.47 15.9019C127.47 14.6284 128.287 13.5112 129.501 13.1267C130.99 12.6582 132.552 12.6582 134.042 13.1387L134.799 13.379C135.363 13.5592 135.676 14.1719 135.496 14.7366C135.315 15.3012 134.703 15.6135 134.138 15.4333L133.357 15.1931C132.3 14.8567 131.195 14.8447 130.137 15.1811C129.825 15.2772 129.621 15.5655 129.621 15.8899C129.621 16.2383 129.873 16.5506 130.21 16.6227L132.564 17.1152ZM67.8542 21.9563C68.3604 21.5947 68.4087 20.8595 67.9627 20.4135C67.6011 20.0519 67.0467 20.0157 66.6489 20.3171C65.7811 20.9438 64.7084 21.3054 63.5513 21.3054C62.0808 21.3054 60.755 20.7148 59.8028 19.7506C58.8386 18.7984 58.248 17.4726 58.248 16.0021C58.248 14.5316 58.8386 13.2058 59.8028 12.2536H59.8149C60.7671 11.2894 62.0808 10.6988 63.5513 10.6988C64.7084 10.6988 65.7811 11.0604 66.6489 11.6871C67.0467 11.9885 67.6132 11.9403 67.9627 11.5907C68.3966 11.1568 68.3604 10.4095 67.8542 10.0479C66.6489 9.16807 65.1544 8.64979 63.5513 8.64979C61.5264 8.64979 59.7064 9.46939 58.3685 10.8073H58.3565C57.0186 12.1331 56.199 13.9772 56.199 16.0021C56.199 18.027 57.0186 19.8711 58.3565 21.1969C59.6944 22.5348 61.5264 23.3544 63.5513 23.3544C65.1544 23.3544 66.6489 22.8361 67.8542 21.9563ZM53.6199 15.4236H48.9313C48.3286 15.4236 47.8465 15.9057 47.8465 16.5083C47.8465 17.111 48.3286 17.5931 48.9313 17.5931H52.0471C52.184 17.6036 52.3048 17.7204 52.3048 17.8701C52.3048 17.9023 52.2953 17.9344 52.2847 17.9666C52.0184 18.6456 51.6116 19.25 51.1008 19.7506C50.1486 20.7148 48.8228 21.3054 47.3523 21.3054C45.8819 21.3054 44.556 20.7148 43.6038 19.7506V19.7385C42.6396 18.7863 42.049 17.4726 42.049 16.0021C42.049 14.5316 42.6396 13.2058 43.6038 12.2536C44.556 11.2894 45.8819 10.6988 47.3523 10.6988C48.5094 10.6988 49.5701 11.0604 50.4379 11.6871C50.8477 11.9764 51.4021 11.9403 51.7517 11.5907C52.1856 11.1568 52.1494 10.4095 51.6432 10.0479C50.4379 9.16807 48.9554 8.64979 47.3523 8.64979C45.3274 8.64979 43.4833 9.46939 42.1575 10.8073C40.8196 12.1331 40 13.9772 40 16.0021C40 18.027 40.8196 19.8591 42.1575 21.1849V21.1969C43.4833 22.5348 45.3274 23.3544 47.3523 23.3544C49.3772 23.3544 51.2213 22.5348 52.5472 21.1969C53.5234 20.2327 54.2225 18.9792 54.5359 17.5931C54.6082 17.2315 54.6564 16.8699 54.6805 16.4963C54.6926 15.9057 54.2105 15.4356 53.6199 15.4236Z" fill="white"/>
</g>
</svg>
