<svg width="32" height="32" viewBox="0 0 32 32" fill="none" xmlns="http://www.w3.org/2000/svg">
<path fill-rule="evenodd" clip-rule="evenodd" d="M16 32C24.8366 32 32 24.8366 32 16C32 7.16344 24.8366 -2.38419e-07 16 -2.38419e-07C7.16344 -2.38419e-07 0 7.16344 0 16C0 24.8366 7.16344 32 16 32ZM10.5898 8.63158C6.52203 8.63158 3.22142 11.9322 3.22142 16C3.22142 20.0035 6.41857 23.2639 10.3976 23.3659C10.5034 23.3686 10.5898 23.2826 10.5898 23.1767V21.9005C10.5898 21.7947 10.5036 21.7092 10.3978 21.7057C7.33533 21.6043 4.88097 19.087 4.88097 16C4.88097 13.0749 7.08466 10.6613 9.92128 10.3299C10.0032 10.3204 10.0813 10.3664 10.1145 10.4419L10.8146 12.0342C10.876 12.174 10.7568 12.3284 10.6045 12.3173C10.5147 12.3108 10.4241 12.3075 10.3326 12.3075C8.29329 12.3075 6.6401 13.9607 6.6401 16C6.6401 18.0393 8.29329 19.6925 10.3326 19.6925C11.5072 19.6925 12.5537 19.144 13.23 18.2892C13.3248 18.1695 13.5192 18.186 13.5806 18.3258L15.8245 23.2539C15.8916 23.4066 16.1083 23.4066 16.1754 23.2539L18.4164 18.3324C18.4777 18.1928 18.6717 18.1762 18.7666 18.2955C19.4431 19.1467 20.4873 19.6925 21.659 19.6925C23.6983 19.6925 25.3515 18.0393 25.3515 16C25.3515 13.9607 23.6983 12.3075 21.659 12.3075C21.5703 12.3075 21.4823 12.3106 21.3951 12.3168C21.243 12.3275 21.1242 12.1733 21.1856 12.0337L21.8854 10.4419C21.9186 10.3664 21.9967 10.3204 22.0786 10.3299C24.9153 10.6613 27.119 13.0749 27.119 16C27.119 19.087 24.6646 21.6043 21.6021 21.7057C21.4963 21.7092 21.4101 21.7947 21.4101 21.9005V23.1767C21.4101 23.2826 21.4965 23.3686 21.6023 23.3659C25.5814 23.2639 28.7785 20.0035 28.7785 16C28.7785 11.9322 25.4779 8.63158 21.4101 8.63158H20.9936C20.9176 8.63158 20.8487 8.67651 20.8181 8.74611C20.0442 10.5064 19.2704 12.2225 18.4967 13.9386C17.7229 15.6545 16.9492 17.3704 16.1754 19.1305C16.1083 19.2832 15.8916 19.2832 15.8245 19.1305L11.1818 8.74611C11.1512 8.67651 11.0824 8.63158 11.0063 8.63158H10.5898ZM19.6261 16C19.6261 15.7528 19.6702 15.5159 19.751 15.2968L19.8501 15.0713C20.1875 14.4156 20.8709 13.967 21.659 13.967C22.7818 13.967 23.692 14.8772 23.692 16C23.692 17.1228 22.7818 18.0329 21.659 18.0329C20.5363 18.0329 19.6261 17.1228 19.6261 16ZM8.29965 16C8.29965 14.8772 9.20983 13.967 10.3326 13.967C11.4554 13.967 12.3655 14.8772 12.3655 16C12.3655 17.1228 11.4554 18.0329 10.3326 18.0329C9.20983 18.0329 8.29965 17.1228 8.29965 16Z" fill="black" fill-opacity="0.225"/>
</svg>
