<svg width="228" height="135" viewBox="0 0 228 135" fill="none" xmlns="http://www.w3.org/2000/svg">
<path fill-rule="evenodd" clip-rule="evenodd" d="M114 76.6333C134.987 76.6333 152 59.6201 152 38.6333C152 17.6465 134.987 0.633301 114 0.633301C93.0132 0.633301 76 17.6465 76 38.6333C76 59.6201 93.0132 76.6333 114 76.6333ZM101.151 21.1333C91.4898 21.1333 83.6509 28.9723 83.6509 38.6333C83.6509 48.1416 91.2441 55.8851 100.694 56.1274C100.946 56.1338 101.151 55.9294 101.151 55.678V52.647C101.151 52.3956 100.946 52.1926 100.695 52.1842C93.4214 51.9435 87.5923 45.9649 87.5923 38.6333C87.5923 31.6861 92.8261 25.9538 99.563 25.1669C99.7576 25.1441 99.9431 25.2536 100.022 25.4329L101.685 29.2146C101.831 29.5466 101.547 29.9133 101.186 29.887C100.973 29.8715 100.757 29.8636 100.54 29.8636C95.6966 29.8636 91.7702 33.7899 91.7702 38.6333C91.7702 43.4766 95.6966 47.403 100.54 47.403C103.33 47.403 105.815 46.1004 107.421 44.0702C107.646 43.7858 108.108 43.825 108.254 44.157L113.583 55.8613C113.743 56.224 114.257 56.224 114.417 55.8613L119.739 44.1728C119.885 43.8413 120.345 43.8017 120.571 44.0852C122.177 46.1068 124.657 47.403 127.44 47.403C132.284 47.403 136.21 43.4766 136.21 38.6333C136.21 33.7899 132.284 29.8636 127.44 29.8636C127.229 29.8636 127.02 29.871 126.813 29.8856C126.452 29.9111 126.17 29.5448 126.316 29.2133L127.978 25.4329C128.057 25.2536 128.242 25.1441 128.437 25.1669C135.174 25.9538 140.408 31.6861 140.408 38.6333C140.408 45.9649 134.578 51.9435 127.305 52.1842C127.054 52.1926 126.849 52.3956 126.849 52.647V55.678C126.849 55.9294 127.054 56.1338 127.305 56.1274C136.756 55.8851 144.349 48.1416 144.349 38.6333C144.349 28.9723 136.51 21.1333 126.849 21.1333H125.86C125.679 21.1333 125.516 21.24 125.443 21.4053C123.605 25.5861 121.767 29.6618 119.93 33.7374C118.092 37.8128 116.254 41.8881 114.417 46.0682C114.257 46.4309 113.743 46.4309 113.583 46.0682L102.557 21.4053C102.484 21.24 102.321 21.1333 102.14 21.1333H101.151ZM122.612 38.6333C122.612 38.0462 122.717 37.4836 122.909 36.9631L123.144 36.4276C123.945 34.8703 125.568 33.805 127.44 33.805C130.107 33.805 132.268 35.9667 132.268 38.6333C132.268 41.2998 130.107 43.4615 127.44 43.4615C124.774 43.4615 122.612 41.2998 122.612 38.6333ZM95.7117 38.6333C95.7117 35.9667 97.8733 33.805 100.54 33.805C103.206 33.805 105.368 35.9667 105.368 38.6333C105.368 41.2998 103.206 43.4615 100.54 43.4615C97.8733 43.4615 95.7117 41.2998 95.7117 38.6333Z" fill="white"/>
<path fill-rule="evenodd" clip-rule="evenodd" d="M167.969 104.569C169.387 104.569 170.537 103.419 170.537 102.001C170.537 100.583 169.387 99.4333 167.969 99.4333C166.551 99.4333 165.401 100.583 165.401 102.001C165.401 103.419 166.551 104.569 167.969 104.569ZM89.1405 106.241C89.1509 105.395 89.9975 104.553 90.844 104.553H94.8192H96.2388C98.5103 104.553 100.498 106.541 100.498 109.011C100.583 109.976 100.242 110.913 99.5325 111.68C98.7375 112.56 97.5165 113.071 96.2388 113.071H90.844C89.9975 113.071 89.1509 112.23 89.1405 111.384V106.241ZM96.2388 99.4423H94.8192H90.844H86.585C85.1653 99.4423 84.0296 100.294 84.0296 101.998V106.22L84.0295 106.257V111.368L84.0296 111.405V120.169V127.552V131.23C83.9903 131.41 83.9696 131.597 83.9696 131.789C83.9696 133.043 84.8514 134.076 86.0338 134.308C86.2111 134.346 86.3955 134.367 86.585 134.367C86.6628 134.367 86.7397 134.363 86.8156 134.357H90.4874C90.6056 134.363 90.7246 134.366 90.8441 134.366H97.3747C103.366 134.366 107.88 129.852 107.88 123.861C107.88 120.255 106.054 117.068 103.278 115.175L103.28 115.172C104.956 113.355 105.779 111.027 105.609 108.812C105.609 103.73 101.321 99.4423 96.2388 99.4423ZM94.8118 129.255H97.3747C100.498 129.255 102.77 126.984 102.77 123.861C102.77 120.879 100.356 118.466 97.3747 118.466H90.8441C89.9923 118.466 89.1405 119.318 89.1405 120.169V127.552C89.1405 128.302 89.8018 129.053 90.5418 129.221H94.8118V129.255ZM119.634 120.992V131.789C119.634 133.215 118.493 134.356 117.066 134.356C115.64 134.356 114.498 133.215 114.498 131.789V112.387C114.498 110.96 115.64 109.819 117.066 109.819C118.1 109.819 118.984 110.418 119.392 111.291C121.235 110.003 123.474 109.248 125.883 109.248H128.195C129.621 109.248 130.762 110.39 130.762 111.816C130.762 113.243 129.621 114.384 128.195 114.384H125.883C122.46 114.384 119.663 117.18 119.663 120.604C119.663 120.736 119.653 120.865 119.634 120.992ZM199.097 134.328C197.67 134.328 196.529 133.187 196.529 131.76V120.861C196.529 117.294 193.619 114.384 190.052 114.384C186.486 114.384 183.575 117.294 183.575 120.861V128.793C183.575 128.923 183.566 129.051 183.548 129.176V131.789C183.548 133.215 182.406 134.356 180.98 134.356C179.553 134.356 178.412 133.215 178.412 131.789V112.387C178.412 110.96 179.553 109.819 180.98 109.819C182.052 109.819 182.963 110.464 183.349 111.39C185.246 110.042 187.56 109.248 190.052 109.248C196.443 109.248 201.665 114.47 201.665 120.861V131.76C201.665 133.187 200.495 134.328 199.097 134.328ZM158.011 122.52V131.789C158.011 133.215 156.869 134.356 155.443 134.356C154.043 134.356 152.917 133.257 152.876 131.868C150.766 133.43 148.158 134.356 145.343 134.356C138.352 134.356 132.646 128.65 132.646 121.659C132.646 114.669 138.352 108.963 145.343 108.963C148.219 108.963 150.878 109.929 153.011 111.553C153.355 110.54 154.308 109.819 155.443 109.819C156.869 109.819 158.011 110.96 158.011 112.387V120.799C158.03 121.083 158.04 121.37 158.04 121.659C158.04 121.949 158.03 122.236 158.011 122.52ZM152.875 120.995C152.537 117.139 149.285 114.098 145.343 114.098C141.177 114.098 137.782 117.494 137.782 121.659C137.782 125.825 141.177 129.221 145.343 129.221C149.285 129.221 152.537 126.18 152.875 122.324V120.995ZM170.537 131.789V112.387C170.537 110.96 169.367 109.819 167.969 109.819C166.542 109.819 165.401 110.96 165.401 112.387V131.789C165.401 133.215 166.542 134.356 167.969 134.356C169.395 134.356 170.537 133.215 170.537 131.789ZM219.84 119.548C220.045 119.59 220.239 119.656 220.421 119.741L222.522 120.176C225.717 120.833 228 123.686 228 126.939C228 129.963 226.06 132.616 223.178 133.529C221.466 134.072 219.669 134.328 217.871 134.328C216.045 134.328 214.219 134.043 212.45 133.472L210.652 132.902C209.311 132.474 208.57 131.019 208.997 129.678C209.425 128.337 210.881 127.595 212.222 128.023L214.019 128.593C216.53 129.392 219.155 129.421 221.666 128.622C222.408 128.394 222.893 127.709 222.893 126.939C222.893 126.111 222.294 125.369 221.495 125.198L215.988 124.057C215.807 124.02 215.635 123.965 215.473 123.894L213.249 123.429C210.053 122.773 207.742 119.919 207.742 116.667C207.742 113.642 209.682 110.989 212.564 110.076C216.102 108.963 219.811 108.963 223.349 110.104L225.147 110.675C226.488 111.103 227.23 112.558 226.802 113.899C226.374 115.24 224.919 115.982 223.578 115.554L221.723 114.983C219.212 114.184 216.587 114.156 214.076 114.955C213.335 115.183 212.85 115.868 212.85 116.638C212.85 117.466 213.449 118.207 214.248 118.379L219.84 119.548ZM66.1538 131.046C67.3561 130.187 67.4706 128.441 66.4114 127.382C65.5526 126.523 64.2358 126.437 63.2912 127.153C61.2301 128.641 58.6824 129.5 55.9344 129.5C52.442 129.5 49.2932 128.097 47.0317 125.807C44.7417 123.546 43.339 120.397 43.339 116.905C43.339 113.412 44.7417 110.264 47.0317 108.002H47.0603C49.3218 105.712 52.442 104.309 55.9344 104.309C58.6824 104.309 61.2301 105.168 63.2912 106.657C64.2358 107.372 65.5813 107.258 66.4114 106.428C67.4419 105.397 67.3561 103.622 66.1538 102.764C63.2912 100.674 59.7416 99.443 55.9344 99.443C51.1252 99.443 46.8027 101.39 43.6253 104.567H43.5966C40.4192 107.716 38.4726 112.096 38.4726 116.905C38.4726 121.714 40.4192 126.094 43.5966 129.243C46.7741 132.42 51.1252 134.367 55.9344 134.367C59.7416 134.367 63.2912 133.136 66.1538 131.046ZM32.3472 115.531H21.2117C19.7804 115.531 18.6354 116.676 18.6354 118.107C18.6354 119.538 19.7804 120.683 21.2117 120.683H28.6119C28.937 120.708 29.224 120.986 29.224 121.341C29.224 121.418 29.2014 121.494 29.1762 121.57C28.5438 123.183 27.5775 124.619 26.3644 125.807C24.1029 128.097 20.9541 129.5 17.4618 129.5C13.9694 129.5 10.8206 128.097 8.55912 125.807V125.779C6.26905 123.517 4.86638 120.397 4.86638 116.905C4.86638 113.412 6.26905 110.264 8.55912 108.002C10.8206 105.712 13.9694 104.309 17.4618 104.309C20.2098 104.309 22.7289 105.168 24.79 106.657C25.7632 107.344 27.08 107.258 27.9102 106.428C28.9407 105.397 28.8548 103.622 27.6525 102.764C24.79 100.674 21.269 99.443 17.4618 99.443C12.6526 99.443 8.27286 101.39 5.12401 104.567C1.94655 107.716 0 112.096 0 116.905C0 121.714 1.94655 126.065 5.12401 129.214V129.243C8.27286 132.42 12.6526 134.367 17.4618 134.367C22.2709 134.367 26.6506 132.42 29.7995 129.243C32.1182 126.952 33.7785 123.975 34.5227 120.683C34.6945 119.825 34.809 118.966 34.8663 118.078C34.8949 116.676 33.7498 115.559 32.3472 115.531Z" fill="white"/>
</svg>
