<svg width="324" height="77" viewBox="0 0 324 77" fill="none" xmlns="http://www.w3.org/2000/svg">
<path d="M76.5 38.5C76.5 59.4868 59.4868 76.5 38.5 76.5C17.5132 76.5 0.5 59.4868 0.5 38.5C0.5 17.5132 17.5132 0.5 38.5 0.5C59.4868 0.5 76.5 17.5132 76.5 38.5Z" fill="#F9465B"/>
<path fill-rule="evenodd" clip-rule="evenodd" d="M8.15088 38.5C8.15088 28.839 15.9898 21 25.6508 21H26.64C26.8206 21 26.9841 21.1067 27.0568 21.272L38.0832 45.9349C38.2426 46.2976 38.7572 46.2976 38.9166 45.9349C42.5922 37.5746 46.2669 29.6334 49.9431 21.272C50.0157 21.1067 50.1792 21 50.3598 21H51.349C61.01 21 68.8489 28.839 68.8489 38.5C68.8489 48.0083 61.2557 55.7518 51.8055 55.9941C51.5541 56.0005 51.349 55.7961 51.349 55.5447V52.5137C51.349 52.2623 51.5538 52.0593 51.8051 52.051C59.0784 51.8102 64.9075 45.8316 64.9075 38.5C64.9075 31.5528 59.6738 25.8205 52.9368 25.0336C52.7422 25.0108 52.5567 25.1203 52.4778 25.2996L50.8158 29.08C50.6701 29.4115 50.9522 29.7778 51.3134 29.7523C51.5204 29.7377 51.7294 29.7303 51.9402 29.7303C56.7836 29.7303 60.7099 33.6566 60.7099 38.5C60.7099 43.3433 56.7836 47.2696 51.9402 47.2696C49.1574 47.2696 46.6773 45.9735 45.0707 43.9519C44.8454 43.6684 44.3846 43.708 44.2389 44.0395L38.9166 55.728C38.7572 56.0907 38.2426 56.0907 38.0832 55.728L32.754 44.0237C32.608 43.6917 32.1463 43.6525 31.9213 43.9369C30.3151 45.9671 27.8296 47.2696 25.0399 47.2696C20.1966 47.2696 16.2702 43.3433 16.2702 38.5C16.2702 33.6566 20.1966 29.7303 25.0399 29.7303C25.2571 29.7303 25.4725 29.7382 25.6858 29.7537C26.0474 29.78 26.3305 29.4133 26.1846 29.0813L24.522 25.2996C24.4431 25.1203 24.2576 25.0108 24.063 25.0336C17.3261 25.8205 12.0923 31.5528 12.0923 38.5C12.0923 45.8316 17.9214 51.8102 25.1948 52.051C25.446 52.0593 25.6508 52.2623 25.6508 52.5137V55.5447C25.6508 55.7961 25.4457 56.0005 25.1944 55.9941C15.7441 55.7518 8.15088 48.0083 8.15088 38.5ZM47.4086 36.8298C47.2167 37.3503 47.1119 37.9129 47.1119 38.5C47.1119 41.1665 49.2736 43.3282 51.9402 43.3282C54.6068 43.3282 56.7685 41.1665 56.7685 38.5C56.7685 35.8334 54.6068 33.6717 51.9402 33.6717C50.0683 33.6717 48.4452 34.737 47.644 36.2943L47.4086 36.8298ZM25.0399 33.6717C22.3733 33.6717 20.2117 35.8334 20.2117 38.5C20.2117 41.1665 22.3733 43.3282 25.0399 43.3282C27.7065 43.3282 29.8682 41.1665 29.8682 38.5C29.8682 35.8334 27.7065 33.6717 25.0399 33.6717Z" fill="white"/>
<path fill-rule="evenodd" clip-rule="evenodd" d="M263.469 26.1691C264.887 26.1691 266.037 25.0194 266.037 23.6012C266.037 22.1829 264.887 21.0333 263.469 21.0333C262.05 21.0333 260.901 22.1829 260.901 23.6012C260.901 25.0194 262.05 26.1691 263.469 26.1691ZM184.64 27.841C184.651 26.9945 185.497 26.1532 186.344 26.1532H190.319H191.739C194.01 26.1532 195.998 28.1408 195.998 30.611C196.083 31.5764 195.742 32.5134 195.033 33.28C194.237 34.1602 193.017 34.6713 191.739 34.6713H186.344C185.497 34.6713 184.651 33.83 184.64 32.9835V27.841ZM191.739 21.0423H190.319H186.344H182.085C180.665 21.0423 179.53 21.8941 179.53 23.5978V27.82L179.53 27.8568V32.9677L179.53 33.0045V41.7694V49.1518V52.8299C179.49 53.0096 179.47 53.1966 179.47 53.3887C179.47 54.6427 180.351 55.6763 181.534 55.908C181.711 55.9464 181.896 55.9667 182.085 55.9667C182.163 55.9667 182.24 55.9633 182.316 55.9566H185.987C186.106 55.9631 186.225 55.9663 186.344 55.9663H192.875C198.866 55.9663 203.38 51.4517 203.38 45.4606C203.38 41.8552 201.554 38.6677 198.778 36.7749L198.78 36.7725C200.456 34.9553 201.279 32.627 201.109 30.4123C201.109 25.3298 196.821 21.0423 191.739 21.0423ZM190.312 50.8554H192.875C195.998 50.8554 198.27 48.5839 198.27 45.4606C198.27 42.4793 195.856 40.0658 192.875 40.0658H186.344C185.492 40.0658 184.64 40.9176 184.64 41.7694V49.1518C184.64 49.9024 185.302 50.653 186.042 50.8208H190.312V50.8554ZM215.134 42.5916V53.3885C215.134 54.8152 213.993 55.9565 212.566 55.9565C211.14 55.9565 209.998 54.8152 209.998 53.3885V33.9866C209.998 32.56 211.14 31.4187 212.566 31.4187C213.6 31.4187 214.484 32.0179 214.892 32.8906C216.735 31.6031 218.974 30.8482 221.383 30.8482H223.695C225.121 30.8482 226.262 31.9895 226.262 33.4161C226.262 34.8427 225.121 35.984 223.695 35.984H221.383C217.96 35.984 215.163 38.7802 215.163 42.204C215.163 42.3359 215.153 42.4653 215.134 42.5916ZM294.597 55.9281C293.17 55.9281 292.029 54.7868 292.029 53.3602V42.4608C292.029 38.8943 289.119 35.984 285.552 35.984C281.986 35.984 279.075 38.8943 279.075 42.4608V50.3928C279.075 50.523 279.066 50.6508 279.048 50.7756V53.3885C279.048 54.8152 277.906 55.9565 276.48 55.9565C275.053 55.9565 273.912 54.8152 273.912 53.3885V33.9866C273.912 32.56 275.053 31.4187 276.48 31.4187C277.552 31.4187 278.463 32.0636 278.849 32.9898C280.746 31.6421 283.06 30.8482 285.552 30.8482C291.943 30.8482 297.165 36.0696 297.165 42.4608V53.3602C297.165 54.7868 295.995 55.9281 294.597 55.9281ZM253.511 44.1199V53.3885C253.511 54.8152 252.369 55.9565 250.943 55.9565C249.543 55.9565 248.417 54.8572 248.376 53.4677C246.266 55.0304 243.658 55.9563 240.843 55.9563C233.852 55.9563 228.146 50.2499 228.146 43.2595C228.146 36.269 233.852 30.5626 240.843 30.5626C243.719 30.5626 246.378 31.5287 248.511 33.1527C248.855 32.1401 249.808 31.4187 250.943 31.4187C252.369 31.4187 253.511 32.56 253.511 33.9866V42.399C253.53 42.6834 253.54 42.9703 253.54 43.2595C253.54 43.5486 253.53 43.8355 253.511 44.1199ZM248.375 42.5953C248.037 38.7388 244.785 35.6984 240.843 35.6984C236.677 35.6984 233.282 39.0937 233.282 43.2595C233.282 47.4252 236.677 50.8205 240.843 50.8205C244.785 50.8205 248.037 47.7801 248.375 43.9236V42.5953ZM266.037 53.3885V33.9866C266.037 32.56 264.867 31.4187 263.469 31.4187C262.042 31.4187 260.901 32.56 260.901 33.9866V53.3885C260.901 54.8152 262.042 55.9565 263.469 55.9565C264.895 55.9565 266.037 54.8152 266.037 53.3885ZM315.34 41.1485C315.545 41.1904 315.739 41.2556 315.921 41.3409L318.022 41.7764C321.217 42.4326 323.5 45.2858 323.5 48.5385C323.5 51.5629 321.56 54.2164 318.678 55.1295C316.966 55.6716 315.169 55.9284 313.371 55.9284C311.545 55.9284 309.719 55.643 307.95 55.0724L306.152 54.5018C304.811 54.0738 304.07 52.6186 304.498 51.2776C304.925 49.9366 306.381 49.1948 307.722 49.6227L309.519 50.1934C312.03 50.9923 314.655 51.0208 317.166 50.2219C317.908 49.9937 318.393 49.3089 318.393 48.5385C318.393 47.7111 317.794 46.9692 316.995 46.798L311.488 45.6568C311.307 45.6199 311.135 45.5648 310.973 45.494L308.749 45.0288C305.553 44.3726 303.242 41.5194 303.242 38.2667C303.242 35.2423 305.182 32.5888 308.064 31.6757C311.602 30.563 315.311 30.563 318.849 31.7043L320.647 32.2749C321.988 32.7029 322.73 34.1581 322.302 35.4991C321.874 36.8401 320.419 37.5819 319.078 37.1539L317.223 36.5833C314.712 35.7844 312.087 35.7559 309.576 36.5548C308.835 36.783 308.35 37.4678 308.35 38.2382C308.35 39.0656 308.949 39.8074 309.748 39.9786L315.34 41.1485ZM161.654 52.6459C162.856 51.7871 162.971 50.041 161.911 48.9818C161.053 48.123 159.736 48.0372 158.791 48.7528C156.73 50.2413 154.182 51.1001 151.434 51.1001C147.942 51.1001 144.793 49.6975 142.532 47.4074C140.242 45.146 138.839 41.9971 138.839 38.5048C138.839 35.0124 140.242 31.8636 142.532 29.6021H142.56C144.822 27.3121 147.942 25.9094 151.434 25.9094C154.182 25.9094 156.73 26.7682 158.791 28.2567C159.736 28.9724 161.081 28.8579 161.911 28.0277C162.942 26.9972 162.856 25.2224 161.654 24.3636C158.791 22.2739 155.242 21.043 151.434 21.043C146.625 21.043 142.303 22.9896 139.125 26.167H139.097C135.919 29.3159 133.973 33.6956 133.973 38.5048C133.973 43.3139 135.919 47.6937 139.097 50.8425C142.274 54.02 146.625 55.9665 151.434 55.9665C155.242 55.9665 158.791 54.7356 161.654 52.6459ZM127.847 37.1307H116.712C115.28 37.1307 114.135 38.2758 114.135 39.707C114.135 41.1383 115.28 42.2834 116.712 42.2834H124.112C124.437 42.3083 124.724 42.5856 124.724 42.9412C124.724 43.0176 124.701 43.094 124.676 43.1704C124.044 44.783 123.077 46.2186 121.864 47.4074C119.603 49.6975 116.454 51.1001 112.962 51.1001C109.469 51.1001 106.321 49.6975 104.059 47.4074V47.3788C101.769 45.1173 100.366 41.9971 100.366 38.5048C100.366 35.0124 101.769 31.8636 104.059 29.6021C106.321 27.3121 109.469 25.9094 112.962 25.9094C115.71 25.9094 118.229 26.7682 120.29 28.2567C121.263 28.9437 122.58 28.8579 123.41 28.0277C124.441 26.9972 124.355 25.2224 123.153 24.3636C120.29 22.2739 116.769 21.043 112.962 21.043C108.153 21.043 103.773 22.9896 100.624 26.167C97.4465 29.3159 95.5 33.6956 95.5 38.5048C95.5 43.3139 97.4465 47.665 100.624 50.8139V50.8425C103.773 54.02 108.153 55.9665 112.962 55.9665C117.771 55.9665 122.151 54.02 125.299 50.8425C127.618 48.5524 129.278 45.5753 130.023 42.2834C130.194 41.4246 130.309 40.5658 130.366 39.6784C130.395 38.2758 129.25 37.1593 127.847 37.1307Z" fill="black"/>
</svg>
