<svg width="77" height="77" viewBox="0 0 77 77" fill="none" xmlns="http://www.w3.org/2000/svg">
<path d="M76.5 38.5C76.5 59.4868 59.4868 76.5 38.5 76.5C17.5132 76.5 0.5 59.4868 0.5 38.5C0.5 17.5132 17.5132 0.5 38.5 0.5C59.4868 0.5 76.5 17.5132 76.5 38.5Z" fill="white"/>
<path fill-rule="evenodd" clip-rule="evenodd" d="M8.15088 38.5C8.15088 28.839 15.9898 21 25.6508 21H26.64C26.8206 21 26.9841 21.1067 27.0568 21.272L38.0832 45.9349C38.2426 46.2976 38.7572 46.2976 38.9166 45.9349C42.5922 37.5746 46.2669 29.6334 49.9431 21.272C50.0157 21.1067 50.1792 21 50.3598 21H51.349C61.01 21 68.8489 28.839 68.8489 38.5C68.8489 48.0083 61.2557 55.7518 51.8055 55.9941C51.5541 56.0005 51.349 55.7961 51.349 55.5447V52.5137C51.349 52.2623 51.5538 52.0593 51.8051 52.051C59.0784 51.8102 64.9075 45.8316 64.9075 38.5C64.9075 31.5528 59.6738 25.8205 52.9368 25.0336C52.7422 25.0108 52.5567 25.1203 52.4778 25.2996L50.8158 29.08C50.6701 29.4115 50.9522 29.7778 51.3134 29.7523C51.5204 29.7377 51.7294 29.7303 51.9402 29.7303C56.7836 29.7303 60.7099 33.6566 60.7099 38.5C60.7099 43.3433 56.7836 47.2696 51.9402 47.2696C49.1574 47.2696 46.6773 45.9735 45.0707 43.9519C44.8454 43.6684 44.3846 43.708 44.2389 44.0395L38.9166 55.728C38.7572 56.0907 38.2426 56.0907 38.0832 55.728L32.754 44.0237C32.608 43.6917 32.1463 43.6525 31.9213 43.9369C30.3151 45.9671 27.8296 47.2696 25.0399 47.2696C20.1966 47.2696 16.2702 43.3433 16.2702 38.5C16.2702 33.6566 20.1966 29.7303 25.0399 29.7303C25.2571 29.7303 25.4725 29.7382 25.6858 29.7537C26.0474 29.78 26.3305 29.4133 26.1846 29.0813L24.522 25.2996C24.4431 25.1203 24.2576 25.0108 24.063 25.0336C17.3261 25.8205 12.0923 31.5528 12.0923 38.5C12.0923 45.8316 17.9214 51.8102 25.1948 52.051C25.446 52.0593 25.6508 52.2623 25.6508 52.5137V55.5447C25.6508 55.7961 25.4457 56.0005 25.1944 55.9941C15.7441 55.7518 8.15088 48.0083 8.15088 38.5ZM47.4086 36.8298C47.2167 37.3503 47.1119 37.9129 47.1119 38.5C47.1119 41.1665 49.2736 43.3282 51.9402 43.3282C54.6068 43.3282 56.7685 41.1665 56.7685 38.5C56.7685 35.8334 54.6068 33.6717 51.9402 33.6717C50.0683 33.6717 48.4452 34.737 47.644 36.2943L47.4086 36.8298ZM25.0399 33.6717C22.3733 33.6717 20.2117 35.8334 20.2117 38.5C20.2117 41.1665 22.3733 43.3282 25.0399 43.3282C27.7065 43.3282 29.8682 41.1665 29.8682 38.5C29.8682 35.8334 27.7065 33.6717 25.0399 33.6717Z" fill="#F9465B"/>
</svg>
