<svg width="77" height="77" viewBox="0 0 77 77" fill="none" xmlns="http://www.w3.org/2000/svg">
<path fill-rule="evenodd" clip-rule="evenodd" d="M38.5 76.5C59.4868 76.5 76.5 59.4868 76.5 38.5C76.5 17.5132 59.4868 0.5 38.5 0.5C17.5132 0.5 0.5 17.5132 0.5 38.5C0.5 59.4868 17.5132 76.5 38.5 76.5ZM25.6508 21C15.9898 21 8.15088 28.839 8.15088 38.5C8.15088 48.0083 15.7441 55.7518 25.1944 55.9941C25.4457 56.0005 25.6508 55.7961 25.6508 55.5447V52.5137C25.6508 52.2623 25.446 52.0593 25.1948 52.0509C17.9214 51.8102 12.0923 45.8316 12.0923 38.5C12.0923 31.5528 17.3261 25.8205 24.063 25.0336C24.2576 25.0108 24.4431 25.1203 24.522 25.2996L26.1846 29.0813C26.3305 29.4133 26.0474 29.78 25.6858 29.7537C25.4725 29.7382 25.2571 29.7303 25.0399 29.7303C20.1966 29.7303 16.2702 33.6566 16.2702 38.5C16.2702 43.3433 20.1966 47.2696 25.0399 47.2696C27.8296 47.2696 30.3151 45.9671 31.9213 43.9369C32.1463 43.6525 32.608 43.6917 32.754 44.0237L38.0832 55.728C38.2426 56.0907 38.7572 56.0907 38.9166 55.728L44.2389 44.0395C44.3846 43.708 44.8454 43.6684 45.0707 43.9519C46.6773 45.9735 49.1574 47.2696 51.9402 47.2696C56.7836 47.2696 60.7099 43.3433 60.7099 38.5C60.7099 33.6566 56.7836 29.7303 51.9402 29.7303C51.7294 29.7303 51.5204 29.7377 51.3134 29.7523C50.9522 29.7778 50.6701 29.4115 50.8158 29.08L52.4778 25.2996C52.5567 25.1203 52.7422 25.0108 52.9368 25.0336C59.6738 25.8205 64.9075 31.5528 64.9075 38.5C64.9075 45.8316 59.0784 51.8102 51.8051 52.0509C51.5538 52.0593 51.349 52.2623 51.349 52.5137V55.5447C51.349 55.7961 51.5541 56.0005 51.8055 55.9941C61.2557 55.7518 68.8489 48.0083 68.8489 38.5C68.8489 28.839 61.01 21 51.349 21H50.3598C50.1792 21 50.0157 21.1067 49.9431 21.272C48.105 25.4528 46.2672 29.5285 44.4296 33.6041C42.5919 37.6795 40.7544 41.7548 38.9166 45.9349C38.7572 46.2976 38.2426 46.2976 38.0832 45.9349L27.0568 21.272C26.9841 21.1067 26.8206 21 26.64 21H25.6508ZM47.1119 38.5C47.1119 37.9129 47.2167 37.3503 47.4086 36.8298L47.644 36.2943C48.4452 34.737 50.0683 33.6717 51.9402 33.6717C54.6068 33.6717 56.7685 35.8334 56.7685 38.5C56.7685 41.1665 54.6068 43.3282 51.9402 43.3282C49.2736 43.3282 47.1119 41.1665 47.1119 38.5ZM20.2117 38.5C20.2117 35.8334 22.3733 33.6717 25.0399 33.6717C27.7065 33.6717 29.8682 35.8334 29.8682 38.5C29.8682 41.1665 27.7065 43.3282 25.0399 43.3282C22.3733 43.3282 20.2117 41.1665 20.2117 38.5Z" fill="black"/>
</svg>
